<?xml version="1.0" standalone="no"?>
<!DOCTYPE svg PUBLIC "-//W3C//DTD SVG 20010904//EN"
 "http://www.w3.org/TR/2001/REC-SVG-20010904/DTD/svg10.dtd">
<svg version="1.0" xmlns="http://www.w3.org/2000/svg"
 width="1080.000000pt" height="1080.000000pt" viewBox="0 0 1080.000000 1080.000000"
 preserveAspectRatio="xMidYMid meet">

<g transform="translate(0.000000,1080.000000) scale(0.100000,-0.100000)"
fill="#000000" stroke="none">
<path d="M8090 8770 c-89 -11 -241 -64 -325 -113 -88 -52 -272 -194 -311 -240
-25 -30 -57 -74 -109 -152 -13 -19 -14 -19 -66 9 -28 16 -88 53 -131 82 -44
29 -96 58 -116 65 -20 7 -57 23 -83 35 -26 13 -54 24 -64 24 -9 0 -26 5 -38
12 -25 14 -172 49 -332 80 -152 30 -482 32 -630 5 -357 -66 -645 -150 -870
-252 -17 -7 -52 -23 -80 -35 l-50 -21 -41 43 c-22 24 -43 48 -45 54 -10 26
-186 147 -271 188 -111 52 -169 70 -300 91 -174 27 -396 12 -563 -37 -227 -68
-450 -217 -596 -399 -163 -201 -215 -337 -279 -719 -62 -371 -76 -424 -202
-725 -71 -171 -93 -216 -138 -291 -49 -80 -107 -224 -132 -324 -28 -115 -34
-296 -14 -405 20 -104 84 -262 130 -320 60 -76 121 -137 156 -156 19 -11 49
-28 65 -37 77 -46 126 -57 250 -56 129 0 235 23 298 63 18 12 50 29 73 40 22
10 66 42 99 70 32 28 61 51 65 51 4 0 31 32 59 70 28 39 55 70 61 70 6 0 15
-12 21 -27 6 -16 27 -55 48 -88 21 -33 53 -86 72 -118 74 -127 231 -301 390
-434 86 -72 228 -177 273 -203 17 -9 56 -33 86 -52 80 -51 331 -179 437 -223
51 -22 93 -43 93 -47 0 -4 -12 -14 -27 -22 -16 -8 -53 -40 -83 -71 -30 -32
-101 -99 -158 -151 -121 -110 -115 -108 -272 -65 -58 16 -130 34 -161 41 l-57
11 -12 62 c-13 71 -42 121 -114 194 -59 60 -142 101 -258 128 -66 16 -86 17
-147 6 -40 -6 -88 -20 -109 -31 -20 -11 -41 -20 -46 -20 -5 0 -23 -11 -41 -24
l-32 -24 -29 24 c-77 66 -85 76 -79 91 15 42 16 132 1 196 -42 178 -161 309
-333 366 -129 44 -186 42 -289 -7 -83 -41 -178 -119 -214 -177 -11 -19 -25
-59 -30 -90 -23 -140 79 -382 208 -495 51 -46 87 -58 192 -66 66 -6 83 -3 139
20 l63 25 59 -51 c32 -28 59 -55 59 -60 0 -5 -13 -34 -29 -66 -55 -110 -76
-261 -50 -371 11 -48 5 -57 -48 -73 -32 -9 -38 7 -13 41 11 16 17 32 12 35
-12 7 -81 -10 -100 -26 -9 -7 -37 -24 -62 -37 -25 -13 -52 -30 -61 -37 -19
-17 -39 -18 -39 -4 0 6 7 24 15 41 9 16 13 34 10 39 -9 14 -74 -22 -109 -59
-17 -17 -36 -31 -44 -31 -8 0 -38 15 -66 34 -86 57 -132 75 -274 113 -132 34
-144 36 -322 37 -165 1 -192 -1 -250 -21 -162 -53 -268 -119 -358 -220 -58
-66 -114 -104 -129 -90 -3 4 0 13 7 22 9 11 10 15 0 15 -14 0 -113 -65 -130
-85 -32 -38 -25 -7 15 72 24 49 40 89 35 91 -11 4 -81 -38 -138 -84 -28 -21
-54 -34 -73 -34 l-30 0 22 33 c13 17 36 49 52 70 16 20 26 37 22 37 -19 0
-115 -33 -120 -41 -10 -16 -38 -11 -31 6 9 24 -23 18 -83 -15 -30 -17 -56 -30
-58 -30 -12 0 2 29 33 62 41 46 39 57 -8 35 -18 -8 -46 -19 -62 -23 -25 -6
-28 -4 -23 10 9 22 -10 21 -68 -4 -56 -24 -59 -24 -51 -5 3 8 4 15 2 15 -16 0
-109 -49 -141 -74 -63 -51 -69 -53 -61 -22 7 28 -3 33 -35 16 -16 -9 -19 -7
-19 8 0 11 7 25 16 33 17 14 74 94 74 103 0 3 -6 6 -13 6 -13 0 -181 -122
-192 -140 -12 -19 -33 -11 -28 10 3 11 2 20 -1 20 -16 0 -86 -41 -86 -51 0 -6
-10 -9 -23 -7 -20 3 -22 8 -22 61 1 61 -4 65 -49 47 l-26 -10 3 -1802 2 -1803
4418 -3 4419 -2 -20 32 c-32 53 -36 77 -16 99 22 24 121 26 184 4 44 -16 60
-13 60 10 0 32 35 84 73 109 39 25 78 32 152 27 121 -8 168 -88 110 -190 -14
-23 -25 -46 -25 -50 0 -3 30 -13 68 -21 55 -12 181 -15 717 -15 l650 0 3 1769
2 1768 -26 -6 c-24 -6 -26 -5 -20 19 6 23 4 25 -26 25 -18 -1 -44 -7 -58 -15
-33 -19 -51 -19 -44 0 9 23 -20 19 -74 -10 -67 -36 -96 -33 -49 5 39 32 14 29
-58 -6 -38 -19 -76 -34 -82 -34 -22 0 -14 23 19 57 29 30 30 33 11 33 -38 0
-140 -37 -193 -69 -92 -57 -111 -34 -23 28 55 40 56 41 25 41 -36 0 -170 -46
-193 -66 -29 -26 -41 -17 -34 26 5 31 4 40 -7 40 -38 0 -139 -25 -191 -46 -32
-14 -62 -22 -67 -19 -10 6 5 50 27 76 7 9 10 18 7 22 -8 8 -75 -17 -123 -47
-50 -32 -55 -32 -47 -1 4 15 2 25 -4 25 -15 0 -90 -51 -90 -61 0 -5 -7 -9 -15
-9 -20 0 -19 12 5 56 25 44 19 56 -13 26 -13 -12 -26 -22 -30 -22 -4 0 -25
-12 -47 -26 -22 -15 -43 -24 -46 -21 -4 3 6 38 22 77 36 92 26 104 -48 61 -29
-17 -79 -56 -112 -86 -32 -30 -63 -55 -67 -55 -13 0 -11 24 3 38 22 22 0 23
-42 2 -23 -12 -44 -19 -48 -16 -6 7 8 37 38 84 20 29 20 32 5 32 -10 0 -41
-13 -69 -29 -28 -16 -73 -39 -99 -50 l-49 -21 7 30 c4 17 4 30 2 30 -4 0 -115
-45 -164 -67 -41 -17 43 74 138 151 40 33 3 30 -58 -5 -60 -34 -151 -95 -168
-115 -25 -27 -102 -83 -108 -78 -3 4 4 24 16 45 12 21 19 41 15 44 -7 8 -61
-18 -105 -51 -17 -13 -34 -24 -37 -24 -10 0 -6 39 4 45 14 9 43 66 36 72 -2 3
-48 -25 -101 -61 -101 -69 -149 -88 -106 -42 13 14 20 29 16 35 -8 13 -51 -14
-107 -67 -46 -43 -62 -36 -53 25 4 25 9 52 12 59 9 23 -20 15 -61 -16 -22 -17
-43 -30 -48 -30 -13 0 -9 44 7 66 24 35 6 35 -54 2 -31 -17 -74 -40 -96 -51
-22 -11 -58 -35 -81 -53 -58 -48 -83 -45 -48 4 29 41 5 37 -40 -7 -45 -44 -66
-47 -66 -8 0 20 -19 113 -70 347 -10 47 -25 107 -34 135 -19 60 -14 65 64 65
30 0 71 5 90 10 19 6 76 19 125 30 50 10 115 28 145 39 30 11 78 25 105 32 28
6 95 34 149 61 55 28 122 57 150 65 115 34 314 194 424 343 89 120 95 130 150
236 68 133 132 311 167 459 15 66 29 126 31 132 2 9 23 2 67 -22 113 -62 169
-77 313 -82 160 -7 242 6 343 53 370 171 474 458 373 1024 -11 58 -27 127 -36
153 -9 27 -26 83 -37 125 -38 143 -110 292 -198 409 -68 91 -115 146 -172 202
-61 61 -145 176 -181 246 -71 140 -97 196 -108 230 -15 46 -62 158 -110 260
-90 192 -287 430 -435 526 -115 74 -307 144 -438 159 -95 11 -313 11 -407 0z
m403 -141 c191 -29 349 -95 453 -190 66 -61 174 -180 174 -192 0 -4 20 -37 44
-74 48 -75 110 -208 177 -378 48 -123 146 -307 205 -385 22 -28 76 -93 122
-143 166 -183 288 -380 323 -522 4 -16 21 -77 37 -135 36 -123 68 -292 78
-405 8 -103 -11 -295 -37 -365 -43 -118 -172 -238 -312 -290 -104 -39 -311
-43 -417 -8 -45 15 -155 78 -200 115 -2 2 -6 75 -7 161 -2 110 -9 187 -23 259
-23 111 -68 246 -100 298 -11 18 -20 38 -20 44 0 7 -25 64 -55 127 -30 64 -55
118 -55 120 0 22 -241 381 -308 460 -5 5 -25 31 -44 56 -134 175 -396 449
-533 557 -44 34 -112 93 -151 129 -74 69 -159 140 -216 180 -18 13 -57 41 -87
63 -29 22 -61 44 -70 49 -45 26 107 199 294 335 84 61 218 116 325 134 79 13
319 13 403 0z m-4158 -146 c166 -55 261 -112 362 -215 54 -55 56 -66 13 -88
-57 -29 -267 -155 -286 -172 -11 -10 -63 -46 -116 -81 -126 -83 -167 -116
-273 -222 -92 -92 -168 -182 -195 -232 -9 -16 -34 -55 -55 -88 -106 -163 -226
-452 -289 -700 -29 -114 -48 -280 -53 -465 -4 -155 -2 -208 16 -329 12 -78 23
-147 26 -151 13 -21 -72 -167 -131 -228 -211 -214 -446 -268 -653 -150 -78 45
-139 111 -187 204 -65 124 -78 186 -78 349 1 110 6 158 23 222 26 100 90 259
129 321 33 53 112 205 112 216 0 4 11 31 25 59 31 66 92 224 116 302 19 65 73
326 90 440 10 66 21 116 68 314 34 140 81 227 197 369 58 72 91 101 185 163
63 42 132 82 154 89 22 7 49 19 60 26 21 13 208 69 260 77 17 3 111 4 210 2
169 -2 185 -4 270 -32z m2208 -58 c81 -14 182 -37 225 -51 91 -30 281 -111
302 -129 8 -7 50 -32 94 -55 93 -49 107 -58 261 -170 65 -47 128 -92 141 -101
27 -18 46 -34 185 -158 52 -47 128 -113 168 -146 126 -103 404 -395 496 -520
16 -22 31 -42 34 -45 40 -36 270 -381 314 -472 59 -123 97 -208 114 -256 8
-26 24 -67 35 -92 64 -140 90 -373 70 -618 -26 -310 -141 -625 -311 -853 -52
-68 -160 -178 -226 -229 -48 -37 -212 -123 -285 -149 -19 -7 -46 -19 -60 -26
-14 -8 -53 -20 -85 -28 -33 -8 -94 -26 -135 -41 -261 -90 -649 -120 -1266 -97
-386 15 -545 35 -581 76 -11 13 -24 43 -28 66 -9 51 -42 141 -69 185 -19 32
-85 78 -150 106 -108 45 -259 0 -323 -94 -17 -26 -39 -71 -48 -100 -10 -29
-21 -56 -24 -61 -13 -13 -307 89 -469 165 -46 21 -86 38 -90 38 -4 0 -38 17
-77 37 -38 20 -92 48 -120 63 -27 14 -61 32 -75 41 -14 9 -56 35 -95 60 -152
95 -283 199 -404 319 -132 131 -186 193 -219 251 -10 19 -36 60 -56 92 -59 92
-133 254 -161 352 -55 190 -55 568 0 814 104 472 331 871 641 1127 82 68 199
151 250 179 27 14 85 48 129 75 44 27 83 49 87 50 4 0 36 18 71 39 93 57 371
181 467 209 19 6 60 20 90 32 364 141 802 183 1183 115z m-3520 -3503 c65 -32
151 -113 182 -172 23 -44 39 -142 31 -193 -19 -126 -247 -239 -398 -196 -69
19 -153 132 -195 262 -42 128 -27 190 65 259 113 87 198 97 315 40z m2735
-444 c40 -20 49 -32 77 -93 30 -66 57 -145 105 -310 41 -138 96 -194 230 -236
36 -11 116 -38 178 -60 76 -28 121 -39 138 -35 14 4 63 43 110 88 71 68 84 86
84 113 0 43 -29 69 -68 60 -16 -3 -58 -31 -93 -61 -73 -62 -55 -62 -237 -3
-68 21 -129 39 -136 39 -7 0 -20 8 -29 18 -18 20 -50 102 -42 110 2 3 30 0 62
-7 32 -6 169 -20 303 -31 135 -12 283 -25 330 -29 47 -5 198 -5 335 -1 208 7
252 6 261 -5 12 -16 47 -152 68 -270 8 -44 26 -134 39 -200 47 -234 61 -502
36 -685 -11 -81 -57 -229 -99 -315 -47 -98 -167 -302 -183 -312 -11 -7 -118
-40 -208 -63 -20 -5 -74 -26 -120 -46 -193 -82 -311 -115 -466 -130 -66 -6
-93 -25 -93 -65 0 -25 21 -58 38 -60 4 0 18 -2 32 -4 40 -5 226 24 326 50 51
14 134 42 185 64 128 52 289 101 336 101 64 0 141 -55 201 -143 18 -25 41 -52
51 -59 10 -7 40 -32 66 -56 26 -23 79 -63 116 -89 44 -29 72 -55 75 -70 9 -36
-8 -86 -35 -99 -15 -8 -195 -14 -579 -18 -560 -7 -733 -15 -915 -42 -56 -8
-179 -15 -286 -16 l-188 -1 -79 39 c-88 43 -159 107 -196 175 -20 39 -23 57
-23 164 0 134 9 169 72 277 72 125 214 278 331 355 82 55 112 85 112 112 0 19
-40 61 -58 61 -22 0 -153 -75 -217 -124 -54 -42 -134 -126 -237 -247 -52 -61
-120 -198 -138 -280 -7 -32 -10 -105 -8 -179 3 -120 4 -128 39 -200 20 -41 46
-84 58 -94 12 -11 21 -22 21 -26 0 -10 -113 -30 -176 -30 -69 0 -195 23 -266
48 -115 40 -250 185 -288 310 -24 77 -26 205 -5 275 37 124 185 364 283 463
50 49 55 73 41 200 -15 131 -2 305 31 419 21 75 78 223 92 241 10 13 38 103
38 122 0 24 -48 62 -78 62 -29 0 -120 -59 -182 -116 -14 -12 -45 -34 -70 -47
-25 -14 -67 -37 -93 -52 -43 -25 -54 -27 -109 -21 -95 11 -93 10 -232 130 -33
28 -82 72 -110 97 -28 25 -59 52 -69 60 -18 13 -121 105 -158 141 -15 14 -17
23 -9 43 25 66 -2 125 -58 125 -35 0 -65 -31 -82 -84 -27 -83 -150 -161 -216
-136 -28 11 -54 63 -54 110 0 34 48 136 90 190 40 51 44 77 14 107 -17 17 -32
23 -45 19 -10 -3 -28 -9 -38 -12 -24 -7 -120 81 -105 96 16 16 125 50 162 50
19 0 58 -7 86 -15 28 -8 64 -17 79 -20 16 -3 57 -34 96 -73 62 -61 70 -72 76
-117 3 -28 8 -59 10 -71 6 -29 53 -73 84 -80 50 -11 217 -57 276 -76 72 -24
139 -25 191 -3 38 16 136 85 164 117 8 9 58 56 110 104 104 95 203 164 237
164 24 0 192 -57 210 -72 9 -7 10 -77 6 -276 -6 -280 0 -357 37 -482 24 -79
73 -132 169 -180 71 -35 111 -37 234 -9 56 13 60 12 155 -21 53 -18 120 -43
147 -55 88 -39 129 -54 170 -64 22 -6 82 -22 134 -37 90 -26 97 -27 170 -15
84 14 180 51 228 87 31 24 173 177 336 363 70 80 87 106 87 131 0 37 -32 69
-70 70 -26 0 -98 -69 -203 -195 -27 -33 -94 -108 -149 -167 -108 -116 -134
-131 -256 -148 -82 -11 -211 24 -469 128 -141 57 -247 70 -383 47 -27 -5 -46
0 -83 20 -61 35 -73 53 -93 150 -23 110 -15 731 10 809 21 65 40 93 79 116 42
26 80 25 135 -2z m-2327 -521 c94 -89 108 -107 113 -143 12 -86 95 -162 188
-173 49 -5 61 -12 121 -67 37 -34 67 -65 67 -70 -1 -13 -84 -63 -122 -75 -18
-5 -74 -10 -125 -10 -76 0 -100 4 -140 24 -122 59 -190 125 -239 232 -39 86
-45 216 -15 314 12 39 27 71 34 71 7 0 60 -46 118 -103z m-271 -325 c0 -21
-36 -59 -46 -49 -4 4 -1 20 6 37 14 33 40 41 40 12z m4582 -794 c16 -11 40
-37 52 -57 13 -20 33 -47 45 -60 56 -63 36 -163 -56 -278 -45 -56 -114 -78
-221 -70 -41 3 -76 8 -79 10 -2 3 11 36 30 74 68 132 137 321 137 374 0 14 3
29 7 33 11 10 52 -2 85 -26z"/>
<path d="M6545 7190 c-63 -9 -98 -27 -159 -81 -64 -58 -114 -138 -133 -215
-21 -87 -13 -127 33 -149 32 -15 37 -15 59 -1 31 21 41 40 48 99 9 62 30 102
81 154 84 82 187 81 267 -4 50 -52 61 -76 69 -155 9 -81 28 -108 76 -108 53 0
77 40 71 115 -9 105 -50 190 -125 261 -75 72 -170 100 -287 84z"/>
<path d="M5110 7153 c-116 -40 -215 -145 -270 -287 -38 -97 -29 -139 35 -152
35 -6 85 26 85 55 0 29 68 160 97 187 39 36 117 74 152 74 49 0 95 -28 130
-79 26 -39 33 -61 38 -121 7 -82 25 -110 71 -110 65 0 89 51 72 153 -20 125
-91 222 -197 272 -61 29 -144 33 -213 8z"/>
<path d="M5825 6573 c-244 -58 -342 -181 -265 -333 44 -87 129 -162 230 -205
25 -10 48 -21 52 -25 9 -7 -11 -241 -21 -253 -12 -12 -167 20 -226 47 -130 59
-215 152 -251 273 -28 95 -81 127 -130 78 -24 -24 -26 -32 -21 -75 8 -65 75
-193 134 -256 165 -176 404 -246 683 -200 77 13 107 22 190 58 27 11 32 14 99
56 54 34 167 148 182 184 20 50 -9 108 -55 108 -26 0 -57 -25 -92 -71 -30 -41
-122 -110 -193 -145 -60 -29 -158 -57 -165 -46 -2 4 1 58 8 121 l11 115 33 8
c37 10 188 109 215 141 65 79 102 174 91 237 -11 64 -93 130 -209 170 -46 16
-82 20 -169 19 -61 -1 -120 -3 -131 -6z"/>
</g>
</svg>
